<svg xmlns="http://www.w3.org/2000/svg" baseProfile="tiny" version="1.2" viewBox="0 0 512 512"><path fill="#FFF" d="M422.3 477.9c0 7.6-6.2 13.8-13.8 13.8h-305c-7.6 0-13.8-6.2-13.8-13.8V34.1c0-7.6 6.2-13.8 13.8-13.8h230.1V109h88.7v368.9z"/><path fill="#F3BB2F" d="M333.6 6H103.5C88 6 75.4 18.6 75.4 34.1v443.8c0 15.5 12.6 28.1 28.1 28.1h305c15.5 0 28.1-12.6 28.1-28.1V109.1L333.6 6zm88.7 471.9c0 7.6-6.2 13.8-13.8 13.8h-305c-7.6 0-13.8-6.2-13.8-13.8V34.1c0-7.6 6.2-13.8 13.8-13.8h230.1V109h88.7v368.9z"/><path fill="#DEA21E" d="M333.6 6v103.1h103z"/><g><path fill="#DEA21E" d="M465.9 450.8H46.1V308c0-9.8 7.9-17.7 17.7-17.7h384.3c9.8 0 17.7 7.9 17.7 17.7v142.8z"/><path fill="#B87D0F" d="M436.6 450.8v19.5l29.3-19.5zM75.4 450.8v19.5l-29.3-19.5z"/><path fill="#F3BB2F" d="M64.1 308.4h383.7v124.5H64.1z"/></g><g fill="#F3BB2F"><path d="M298.3 78.6h-177a6.7 6.7 0 010-13.4h177a6.7 6.7 0 010 13.4zM298.3 110.6h-177a6.7 6.7 0 010-13.4h177a6.7 6.7 0 010 13.4zM391.8 142.5H121.3a6.7 6.7 0 010-13.4h270.5a6.7 6.7 0 010 13.4zM391.8 174.5H121.3a6.7 6.7 0 010-13.4h270.5a6.7 6.7 0 010 13.4zM391.8 206.5H121.3a6.7 6.7 0 010-13.4h270.5a6.7 6.7 0 010 13.4zM391.8 238.4H121.3a6.7 6.7 0 010-13.4h270.5a6.7 6.7 0 010 13.4zM391.8 270.4H121.3a6.7 6.7 0 010-13.4h270.5a6.7 6.7 0 010 13.4z"/></g><g fill="#FFF"><path d="M185.9 354.4c1.4-2.1 3.1-3.7 5.1-4.9 2-1.2 4.3-1.7 6.7-1.7 4.8 0 8.6 1.7 11.4 5 2.8 3.4 4.1 8.6 4.1 15.6v26.8h-14.5v-26.8c0-3.6-.5-6-1.4-7.4-.9-1.3-2.3-2-4.2-2-1.6 0-3.1.2-4.3.7-1.2.5-2.2 1.1-3 2v33.5h-14.5v-67.1h14.5v26.3zM267.4 374.7h.3l4.6-26h13.9l-10.9 46.5H263l-7.6-23.8h-.3l-7.6 23.8h-12.3l-11-46.5h13.9l4.6 26.2h.3l7.6-26.2h9.2l7.6 26zM340.6 372.9c0 7-1.6 12.6-4.7 16.8-3.2 4.2-7.6 6.3-13.3 6.3-2.2 0-4.2-.4-6-1.3-1.7-.9-3.2-2.1-4.5-3.7v22h-14.5v-64.4h13.7l.4 5.1c1.3-1.9 2.8-3.4 4.6-4.4 1.8-1 3.8-1.5 6.2-1.5 5.8 0 10.2 2.2 13.4 6.7 3.2 4.4 4.8 10.3 4.8 17.6v.8zm-14.5-.9c0-3.9-.6-7.1-1.7-9.5s-3-3.6-5.5-3.6c-1.6 0-3 .3-4.2.9-1.1.6-2 1.5-2.7 2.6V382c.7 1 1.6 1.7 2.7 2.2 1.1.5 2.5.7 4.2.7 2.6 0 4.4-1.1 5.5-3.2 1.1-2.1 1.7-5.1 1.7-8.8v-.9z"/></g></svg>